<?xml version="1.0" encoding="utf-8"?>
<!-- Generator: Adobe Illustrator 22.1.0, SVG Export Plug-In . SVG Version: 6.00 Build 0)  -->
<svg version="1.1" id="Layer_1" xmlns="http://www.w3.org/2000/svg" xmlns:xlink="http://www.w3.org/1999/xlink" x="0px" y="0px"
	 viewBox="0 0 152 148.3" style="enable-background:new 0 0 152 148.3;" xml:space="preserve">
<style type="text/css">
	.st0{fill:#BFC933;}
	.st1{fill:none;stroke:#BFC933;stroke-width:4.29;stroke-miterlimit:10;}
</style>
<title>Asset 5</title>
<g id="Layer_2_1_">
	<g id="Icons_Set">
		<path class="st0" d="M79.1,79.9c-0.6,0-1.1-0.2-1.5-0.7C76.4,78,49.4,47.5,49.4,29.6c0-39.5,59.3-39.5,59.3,0
			c0,17.8-27,48.3-28.1,49.6C80.2,79.7,79.6,79.9,79.1,79.9z M53.4,29.6c0,14.1,20,38.5,25.6,45.2c5.7-6.7,25.6-31.2,25.6-45.2
			C104.7-4.6,53.4-4.5,53.4,29.6z"/>
		<path class="st0" d="M48.1,120.8c-49,16.7-46.4,16.3-47.6,14.9c-0.5-0.6-0.7-1.5-0.3-2.2C36.4,57,33.8,61.2,35.7,61.2H59
			c1.1,0,2,0.9,2,2c0,1.1-0.9,2-2,2H37L5.8,131c45-15.3,42.2-14.6,43.2-14.2l38.7,16.6c26-13.4,24.4-12.7,25.4-12.5l33.3,8.1
			l-29.2-63.9H98.4c-1.1,0-2-0.9-2-2c0-1.1,0.9-2,2-2h20.2c0.8,0,1.5,0.5,1.8,1.2l31.4,68.8c0.5,1,0,2.2-1,2.7
			c-0.4,0.2-0.9,0.2-1.3,0.1l-36.6-8.9l-24.2,12.4C87.5,138.1,90.2,139,48.1,120.8z"/>
		<path class="st0" d="M110.7,123.2l-9.2-59.7c-0.2-1.1,0.6-2.1,1.7-2.3s2.1,0.6,2.3,1.7l9.2,59.7c0.2,1.1-0.6,2.1-1.7,2.3
			C111.9,125.1,110.8,124.3,110.7,123.2L110.7,123.2z"/>
		<path class="st0" d="M47.8,120.7c-1.1-0.2-1.8-1.3-1.6-2.3L54.5,77c0.3-1.1,1.3-1.7,2.4-1.5c1,0.2,1.7,1.2,1.5,2.3l-8.2,41.3
			C49.9,120.2,48.9,120.9,47.8,120.7z"/>
		<path class="st0" d="M88.8,113.8l2.5-1.7c0.9-0.6,2.2-0.4,2.8,0.5c0.6,0.9,0.4,2.2-0.5,2.8l-2.5,1.7c-1,0.5-2.2,0.2-2.7-0.8
			C87.8,115.5,88,114.4,88.8,113.8z M80.9,112.6l-2.3-1.9c-0.7-0.8-0.7-2.1,0.1-2.8c0.7-0.6,1.7-0.7,2.5-0.2l2.3,2
			c0.9,0.6,1.1,1.9,0.5,2.8c-0.6,0.9-1.9,1.1-2.8,0.5C81.1,112.8,81,112.7,80.9,112.6L80.9,112.6z M14.2,106.5l2.6-1.4
			c1-0.5,2.2,0,2.7,1c0.4,0.9,0.1,2-0.8,2.6l-2.7,1.4c-1,0.4-2.2-0.2-2.6-1.2C13.2,108,13.5,107,14.2,106.5z M99.5,106.4l2.5-1.7
			c0.9-0.6,2.2-0.4,2.8,0.5c0.6,0.9,0.4,2.2-0.5,2.8l-2.5,1.7c-0.9,0.6-2.2,0.3-2.8-0.6C98.4,108.2,98.6,107,99.5,106.4z
			 M126.3,108.8l-2.9-0.8c-1.1-0.3-1.7-1.4-1.3-2.5s1.4-1.7,2.5-1.3l2.9,0.9c1,0.4,1.6,1.5,1.2,2.5
			C128.3,108.5,127.3,109,126.3,108.8z M113.8,105.1l-2.9-0.9c-1-0.4-1.6-1.5-1.2-2.5c0.3-1,1.4-1.5,2.4-1.3l2.9,0.8
			c1.1,0.3,1.7,1.4,1.3,2.5S114.9,105.4,113.8,105.1z M71,104.1l-2.3-2c-0.9-0.6-1.1-1.9-0.5-2.8c0.6-0.9,1.9-1.1,2.8-0.5
			c0.1,0.1,0.2,0.2,0.3,0.3l2.3,1.9c0.7,0.8,0.7,2.1-0.1,2.8C72.8,104.5,71.8,104.5,71,104.1L71,104.1z M25.7,100.4l2.7-1.4
			c1-0.5,2.2-0.1,2.7,0.9c0.5,1,0.1,2.1-0.8,2.6l-2.7,1.5c-1,0.5-2.2,0.1-2.7-0.8C24.3,102.2,24.7,101,25.7,100.4L25.7,100.4z
			 M37.2,94.3l2.7-1.3c1-0.5,2.2-0.1,2.7,0.9c0.5,1,0.1,2.1-0.8,2.6l-2.7,1.4c-1,0.5-2.2,0.1-2.7-0.8C35.8,96.1,36.2,94.9,37.2,94.3
			L37.2,94.3z M62.5,96.1c-0.5,0-0.9-0.2-1.3-0.5l-2.3-2c-0.9-0.6-1.2-1.9-0.5-2.8c0.6-0.9,1.9-1.2,2.8-0.5c0.1,0.1,0.3,0.2,0.4,0.3
			l2.3,1.9c0.8,0.7,0.9,2,0.2,2.8C63.6,95.8,63.1,96.1,62.5,96.1L62.5,96.1z M48.7,88.3l2.7-1.4c1-0.5,2.2,0,2.7,1
			c0.4,0.9,0.1,2-0.8,2.6l-2.7,1.4c-1,0.5-2.2,0-2.7-1C47.5,89.9,47.8,88.8,48.7,88.3z"/>
		<path class="st0" d="M79.4,90c-6.1,0-11.1-4.9-11.1-11c0-3,1.2-5.9,3.4-8c0.8-0.8,2.1-0.8,2.8,0s0.8,2.1,0,2.8
			c-2.8,2.7-2.8,7.1-0.1,9.9c2.7,2.8,7.1,2.8,9.9,0.1c2.8-2.7,2.8-7.1,0.1-9.9c-0.1-0.1-0.1-0.1-0.2-0.2c-0.8-0.8-0.8-2-0.1-2.8
			c0.8-0.8,2-0.8,2.8-0.1c4.5,4.1,4.8,11,0.7,15.5C85.6,88.7,82.6,90,79.4,90z"/>
		<path class="st0" d="M72.7,33h-5l4.7-5.6c0.3-0.3,0.6-0.7,0.8-1c0.2-0.3,0.2-0.7,0.2-1c0.1-0.7-0.4-1.3-1.1-1.4
			c-0.1,0-0.2,0-0.3,0h-6c-0.3,0-0.7,0.1-0.9,0.3c-0.2,0.2-0.3,0.5-0.3,0.8c0,0.3,0.1,0.6,0.3,0.8c0.3,0.2,0.6,0.3,0.9,0.3h4.1l-5,6
			l-0.3,0.3l-0.3,0.4c-0.1,0.1-0.1,0.2-0.2,0.3c-0.1,0.1-0.1,0.3-0.1,0.4c0,0.4,0.1,0.8,0.4,1c0.3,0.3,0.8,0.4,1.2,0.4h6.9
			c0.3,0,0.7-0.1,0.9-0.3c0.2-0.2,0.3-0.5,0.3-0.8c0-0.3-0.1-0.6-0.3-0.8C73.4,33,73,33,72.7,33z"/>
		<path class="st0" d="M81.7,26c-0.1-0.4-0.2-0.6-0.3-0.8c-0.1-0.2-0.2-0.4-0.3-0.6c-0.2-0.2-0.4-0.4-0.6-0.5
			c-0.6-0.3-1.2-0.3-1.8,0c-0.2,0.1-0.4,0.3-0.6,0.5c-0.1,0.2-0.3,0.5-0.4,0.8l-3,7.6c-0.1,0.3-0.2,0.5-0.2,0.7
			c-0.1,0.2-0.1,0.4-0.1,0.5c0,0.3,0.1,0.6,0.4,0.9c0.2,0.2,0.6,0.4,0.9,0.4c0.4,0,0.7-0.1,0.9-0.4c0.2-0.4,0.4-0.7,0.5-1.1l0.4-1.2
			h3.9l0.4,1.2l0,0l0.2,0.6c0.1,0.2,0.2,0.4,0.3,0.5c0.1,0.1,0.2,0.2,0.4,0.3c0.2,0.1,0.4,0.1,0.6,0.1c0.4,0,0.7-0.1,0.9-0.4
			c0.2-0.2,0.4-0.5,0.4-0.9c0-0.4-0.2-0.8-0.3-1.2L81.7,26z M80.7,30.4h-2.3l1.2-3.2L80.7,30.4z"/>
		<path class="st0" d="M94.5,33.4c-0.2-0.4-0.4-0.8-0.7-1.2c-0.3-0.5-0.6-0.9-1-1.3c-0.2-0.2-0.4-0.4-0.6-0.6
			c0.6-0.2,1.1-0.5,1.6-0.9c0.5-0.6,0.8-1.3,0.7-2.1c0-0.4,0-0.8-0.2-1.2c-0.1-0.4-0.4-0.7-0.6-1c-0.3-0.3-0.6-0.5-1-0.7
			c-0.3-0.1-0.7-0.2-1-0.3c-0.4,0-0.8-0.1-1.2-0.1H87c-0.8-0.1-1.5,0.4-1.6,1.2c0,0.1,0,0.3,0,0.4v8.1c0,0.4,0.1,0.8,0.3,1.2
			c0.3,0.3,0.6,0.4,1,0.4c0.4,0,0.7-0.1,1-0.4c0.3-0.3,0.4-0.8,0.4-1.2v-3.1h0.5c0.3,0,0.6,0,0.8,0.1c0.2,0.1,0.5,0.3,0.6,0.5
			c0.3,0.4,0.6,0.7,0.8,1.2l0.8,1.4c0.2,0.3,0.4,0.6,0.5,0.8c0.1,0.2,0.3,0.4,0.5,0.5c0.2,0.1,0.5,0.2,0.8,0.2c0.2,0,0.5,0,0.7-0.2
			c0.2-0.1,0.4-0.2,0.5-0.4c0.1-0.2,0.2-0.4,0.2-0.6C94.7,33.9,94.6,33.6,94.5,33.4z M88.1,26.2h1.7c0.5,0,0.9,0,1.4,0.1
			c0.2,0.1,0.4,0.2,0.5,0.4c0.1,0.2,0.2,0.4,0.2,0.6c0,0.2-0.1,0.5-0.2,0.7c-0.2,0.2-0.4,0.3-0.7,0.4c-0.4,0.1-0.8,0.1-1.2,0.1h-1.6
			V26.2z"/>
		<circle class="st1" cx="79.4" cy="29.9" r="19.8"/>
	</g>
</g>
</svg>
