<?xml version="1.0" encoding="utf-8"?>
<!-- Generator: Adobe Illustrator 22.1.0, SVG Export Plug-In . SVG Version: 6.00 Build 0)  -->
<svg version="1.1" id="Layer_1" xmlns="http://www.w3.org/2000/svg" xmlns:xlink="http://www.w3.org/1999/xlink" x="0px" y="0px"
	 viewBox="0 0 203.7 140.2" style="enable-background:new 0 0 203.7 140.2;" xml:space="preserve">
<style type="text/css">
	.st0{fill:#BFC933;}
</style>
<title>Asset 4</title>
<g id="Layer_2_1_">
	<g id="Icons_Set">
		<path class="st0" d="M27.3,40c-1.6,1.1-3.2,3.6-1.8,9.4c0.4,2.4,1.8,4.5,3.9,5.9c0.2,0.1,0.4,0.3,0.6,0.4l0,0l0,0
			c2.6,17,14.1,29.3,27.4,29.3s24.8-12.2,27.4-29.3c0.2-0.2,0.4-0.3,0.6-0.5c2.1-1.3,3.5-3.5,3.9-5.9c1.4-5.8-0.2-8.3-1.8-9.4
			c-0.4-0.3-0.9-0.5-1.4-0.6c1.4-6.5,2.6-21.1-12.8-29.2L73,10.1c-2.5-1-5.2-1.4-7.8-1.1c-2.8-4.8-6.8-6.6-8.7-6.8
			c-0.5-0.1-1.1,0-1.5,0.4c-0.4,0.3-0.7,0.8-0.8,1.3c-0.4,2.8-4.4,5-8.7,7.3c-3.9,2.1-7.9,4.4-10.7,7.6c-6.1,7.3-6.9,14.8-5.8,20.5
			C28.5,39.4,27.9,39.6,27.3,40z M85.3,48.5c-0.2,1.5-1,2.8-2.3,3.6c-1.1,0.6-1.9,1.7-2.2,3l0,0l0,0c-2.3,15.1-12.1,26.1-23.4,26.1
			S36.2,70.2,34,55.1c0,0,0,0,0-0.1l0,0c0-0.1,0-0.2-0.1-0.3c0,0,0,0,0,0c-0.4-1.1-1.1-2.1-2.1-2.7c-1.2-0.8-2.1-2.1-2.3-3.5
			c-0.9-3.6-0.2-4.9,0.1-5.2c0.2-0.1,0.5,0,0.7,0.1h0.1c0.4,1,0.9,2,1.5,3l0.1,0.1c0.1,0.1,0.1,0.2,0.2,0.3l0.1,0.1
			c0.1,0.1,0.2,0.2,0.3,0.2l0,0c0.1,0.1,0.3,0.1,0.4,0.2h0.1h0.2h0.2c0.2,0,0.3,0,0.5-0.1h0.1c0.2-0.1,0.3-0.1,0.5-0.2l0,0
			c0,0,0,0,0.1,0s0.2-0.1,0.2-0.2l0.1-0.1l0.1-0.2l0.1-0.2c0-0.1,0.1-0.1,0.1-0.2c0-0.1,0-0.1,0.1-0.2c0-0.1,0.1-0.1,0.1-0.2v-0.2
			v-0.1c0.4-4.3,1.8-8.4,4-12.1c12.2,5.9,24.5,5.8,31.7-0.3c1.2-0.9,2.2-2.2,2.9-3.6c1.6,1.4,3,3.2,3.9,5.2c1.4,3.3,2,6.9,1.7,10.5
			v0.1c0,0.1,0,0.2,0,0.2c0,0.1,0,0.1,0,0.2s0,0.1,0,0.2s0.1,0.1,0.1,0.2l0.1,0.2l0.1,0.2l0.1,0.2c0,0,0.1,0.1,0.1,0.1l0.1,0.1
			l0.2,0.1l0.1,0.1l0,0l0.2,0.1l0.2,0.1h0.2h0.2h0.1c0.1,0,0.2,0,0.3,0H82c0.1,0,0.2,0,0.3-0.1l0,0c0.1,0,0.2-0.1,0.3-0.1l0,0
			c0.1-0.1,0.2-0.1,0.3-0.2l0,0c0.1-0.1,0.2-0.2,0.2-0.3l0.1-0.1c0.1-0.1,0.1-0.1,0.1-0.2c0.5-1,1-2,1.4-3c0.1,0,0.2,0,0.3,0
			C85.5,43.6,86.2,44.9,85.3,48.5L85.3,48.5z M38,21.4c2.3-2.7,6-4.8,9.5-6.7c4.3-2.4,8.3-4.6,10-8c2.1,1.3,3.7,3.1,4.7,5.3
			c0.4,0.8,1.3,1.3,2.2,1.1c2.4-0.4,4.8-0.1,7.1,0.7c11,5.9,11.9,15.5,11.1,22c-0.3-0.9-0.6-1.7-0.9-2.6c-1.5-3.6-4.4-6.2-6.3-7.9
			c-0.4-0.4-0.8-0.7-1.1-1c-0.8-0.8-2.1-0.8-2.8,0c-0.3,0.4-0.5,0.8-0.6,1.3c0.1,1.8-0.8,3.5-2.3,4.4c-6.3,5.3-17.6,4.9-28.8-1
			c-0.9-0.5-2-0.2-2.6,0.6c-1.4,2-2.5,4.1-3.5,6.4c-0.3,0.7-0.5,1.4-0.8,2.2C32.2,33.6,32.9,27.4,38,21.4z"/>
		<path class="st0" d="M53.9,52.8c0-1.1-0.9-2-2-2H46c-1.1,0-2,0.9-2,2s0.9,2,2,2h5.9C53,54.8,53.9,53.9,53.9,52.8
			C53.9,52.8,53.9,52.8,53.9,52.8z"/>
		<path class="st0" d="M70.5,50.8h-5.9c-1.1,0-2,0.9-2,2s0.9,2,2,2h5.9c1.1,0,2-0.9,2-2S71.6,50.8,70.5,50.8z"/>
		<path class="st0" d="M62.8,69c-3.6,2.7-7.3,2.7-10.9,0c-0.9-0.7-2.1-0.5-2.8,0.4s-0.5,2.1,0.4,2.8c2.3,1.8,5,2.8,7.9,2.8
			c2.9-0.1,5.6-1.1,7.9-2.9c1-0.5,1.3-1.8,0.8-2.7c-0.5-1-1.8-1.3-2.7-0.8C63.1,68.7,63,68.9,62.8,69z"/>
		<path class="st0" d="M76.7,81.9c-0.1,0-0.3,0-0.4,0c-0.1,0-0.2-0.1-0.3-0.1c-1.1-0.2-2.1,0.5-2.3,1.6l-2.3,12.7l-12.8-7.5
			c-0.2-0.1-0.5-0.2-0.8-0.3c-0.5-0.2-1.1-0.1-1.6,0.2L43,96.2l-2.3-12.8c-0.2-1.1-1.2-1.8-2.3-1.6c-0.1,0-0.2,0.1-0.4,0.1
			c-0.2,0-0.3,0-0.5,0c-18.2,3.5-31.8,18.9-33,37.4c0,0.1,0,0.1,0,0.1c0,0.1,0,0.1,0,0.2c0,0.1,0,0.1,0,0.2c0,0.1,0,0.1,0,0.2
			l0.1,0.2l0.1,0.2c0,0.1,0.1,0.1,0.1,0.2l0.1,0.2l0.2,0.2l0.1,0.1c6.1,5.2,12.9,9.5,20.3,12.7c0.2,0.1,0.3,0.2,0.5,0.2
			c9.8,4.1,20.2,6.3,30.8,6.2H57c11.3,0,22.5-2.4,32.7-7.1c0.1,0,0.2-0.1,0.3-0.2c6.8-3.2,13.2-7.3,18.8-12.3c0.5-0.4,0.7-1,0.7-1.7
			C108.2,100.6,94.7,85.4,76.7,81.9z M91.1,127.9v-13.7c0-1.1-0.9-2-2-2s-2,0.9-2,2v15.6c-9.5,4.2-19.7,6.3-30.1,6.4h-0.2
			c-9.7,0-19.3-1.9-28.2-5.5v-16.4c0-1.1-0.9-2-2-2s-2,0.9-2,2v14.7c-5.7-2.7-11.1-6.2-16-10.3c1.5-15.9,13-29,28.5-32.5l2.5,13.6
			c0.1,0.6,0.5,1.2,1.1,1.5c0.3,0.1,0.6,0.2,0.8,0.2c0.4,0,0.7-0.1,1-0.3l14.6-8.5l14.5,8.5c0.6,0.3,1.3,0.4,1.8,0.1
			c0.6-0.3,1-0.8,1.1-1.5l2.5-13.6c15.3,3.6,26.7,16.4,28.3,32.1C101.1,122,96.3,125.2,91.1,127.9L91.1,127.9z"/>
		<path class="st0" d="M181.9,88.3c6.1-7.8,9.6-17.4,10-27.4v-0.3c0.4-9.1-0.6-31.7-17.9-44.4c-4.9-3.6-10.7-5.7-16.8-6.3
			c-1.6-0.1-3.2-0.1-4.8,0c-6.1,0.5-11.9,2.7-16.9,6.3c-12.3,9-16.3,24.4-17.5,35.6c0,0.1,0,0.2,0,0.3c-0.1,0.7-0.2,1.6-0.3,2.8
			c-0.2,1.9-0.3,3.9-0.3,5.8c-0.1,5-0.1,8.6-5.4,15.5c-0.3,0.4-0.5,1-0.4,1.5c0.1,0.5,0.4,1,0.8,1.3c2.2,1.3,4.7,1.8,7.2,1.3
			c-0.4,2.8-1.6,7-4.7,9.7c-0.8,0.7-0.9,2-0.2,2.8c0.7,0.8,2,0.9,2.8,0.2c6.5-5.6,6.4-15.3,6.4-15.7c0-1.1-0.9-2-2-2
			c-0.3,0-0.6,0.1-0.9,0.2c-1.3,0.7-2.8,1-4.2,0.8c4.5-6.6,4.6-10.9,4.6-15.7c0-1.7,0-3.4,0.3-5.4l0.4-3.5c0-0.2,0-0.4,0-0.6
			c0-0.1,0-0.2,0-0.2l0,0c1.3-10.3,5.1-23.7,15.8-31.5c4.3-3.1,9.4-5,14.8-5.5c1.4-0.1,2.9-0.1,4.3,0c5.3,0.5,10.4,2.4,14.7,5.5
			c15.8,11.5,16.7,32.5,16.3,41v0.4c-0.1,4.5-1.4,16.1-9.8,25.9c-1.9-0.6-3.8-1.1-5.7-1.5h-0.1c-0.2,0-0.4-0.1-0.6-0.1h-0.2h-0.9
			c-1,0-1.8,0.7-2,1.6C167,94.1,162,100.3,155,103c-0.3-0.1-0.5-0.1-0.8,0c-7-2.7-12.1-8.8-13.4-16.2c-0.2-1-1-1.6-2-1.6h-1h-0.3
			l-0.3,0.1H137h0c-17.4,3.1-30.4,17.7-31.4,35.3c0,0.6,0.2,1.2,0.7,1.6c13.3,11.6,30.4,18,48.1,18h0.2c17.8,0,35.1-6.6,48.4-18.4
			c0.5-0.4,0.7-1,0.7-1.7C202.7,106.4,194.3,94.2,181.9,88.3z M187.2,128v-13.5c0-1.1-0.9-2-2-2s-2,0.9-2,2v15.4c0,0,0,0.1,0,0.1
			c-9,4.1-18.7,6.2-28.6,6.3h-0.2c-9.8,0-19.4-2.1-28.3-6.1v-15.7c0-1.1-0.9-2-2-2s-2,0.9-2,2v13.8c-4.4-2.3-8.6-5.2-12.4-8.4
			c1.3-15.2,12.6-27.7,27.6-30.6c2.1,8.3,8.3,14.9,16.3,17.7c0.3,0.1,0.7,0.1,1,0.1c0.3,0.1,0.7,0,1-0.1c8.1-2.8,14.2-9.4,16.4-17.7
			c14.9,2.9,26.1,15.2,27.6,30.2C195.8,122.8,191.6,125.6,187.2,128z"/>
		<path class="st0" d="M147.2,49.3h-5.7c-1.1,0-2,0.9-2,2s0.9,2,2,2h5.7c1.1,0,2-0.9,2-2S148.3,49.3,147.2,49.3z"/>
		<path class="st0" d="M162.1,53.3h5.7c1.1,0,2-0.9,2-2s-0.9-2-2-2h-5.7c-1.1,0-2,0.9-2,2S161,53.3,162.1,53.3z"/>
		<path class="st0" d="M149.9,68c-0.9-0.7-2.1-0.5-2.8,0.4c-0.7,0.9-0.5,2.1,0.4,2.8l0,0c4.4,3.7,10.9,3.7,15.3,0
			c0.9-0.7,1.1-1.9,0.4-2.8c-0.7-0.9-1.9-1.1-2.8-0.4l0,0C156.9,70.6,153.3,70.7,149.9,68z"/>
		<path class="st0" d="M138.9,33.8c-0.9-0.6-2.2-0.4-2.8,0.5c0,0,0,0,0,0c-1.8,2.6-3.2,5.4-4.2,8.4c0,0.1-0.1,0.2-0.1,0.2
			c-1.2,3.7-1.8,7.5-1.8,11.4c0,5.7,1.5,11.3,4.6,16.1c4.1,6.4,11.8,13,20,13.3h0.1c8.1-0.3,15.9-6.9,20-13.3
			c3-4.8,4.6-10.4,4.6-16.1c0.1-7.1-2-14.1-6-20v0c0-0.1-0.1-0.1-0.1-0.2c0,0-0.1-0.1-0.1-0.1l-0.1-0.1l-0.2-0.1h-0.1h-0.1l-0.2-0.1
			l-0.2,0H172h-0.2h-0.2h-0.2h-0.2l-0.2,0.1l-0.2,0.1l-0.2,0.1l-0.1,0.1l0,0l-0.2,0.1l-0.1,0.1c0,0-0.1,0.1-0.1,0.2
			c0,0.1-0.1,0.1-0.1,0.2l0,0c-3.2,5.7-10.5,7-15.3,7.1c1.1-1.8,1.9-3.8,2.3-5.8c0.2-1.1-0.4-2.1-1.5-2.4c-1.1-0.2-2.1,0.4-2.4,1.5
			c0,0.1,0,0.2,0,0.3c-0.6,2.7-2.1,5.1-4.3,6.7c-0.9,0.6-1.2,1.8-0.6,2.8c0.3,0.5,0.8,0.8,1.4,0.9c1.2,0.1,2.4,0.2,3.6,0.2
			c4.8,0,13.2-0.9,18.2-6.6c2.6,4.6,3.9,9.9,3.8,15.2c0,4.9-1.3,9.8-3.9,14c-3.4,5.3-10.1,11.2-16.7,11.5
			c-6.6-0.3-13.3-6.2-16.7-11.5c-2.6-4.2-4-9.1-3.9-14c-0.1-3,0.4-6,1.2-8.9c3.3-0.5,11.3-2.3,15.1-9.5c0.5-1,0.1-2.2-0.8-2.7
			s-2.2-0.1-2.7,0.8c-2.3,4.3-6.8,6.2-9.9,7c0.7-1.5,1.5-3,2.5-4.4C140,35.7,139.8,34.5,138.9,33.8
			C138.9,33.8,138.9,33.8,138.9,33.8z"/>
	</g>
</g>
</svg>
