<?xml version="1.0" encoding="utf-8"?>
<!-- Generator: Adobe Illustrator 22.1.0, SVG Export Plug-In . SVG Version: 6.00 Build 0)  -->
<svg version="1.1" id="Layer_1" xmlns="http://www.w3.org/2000/svg" xmlns:xlink="http://www.w3.org/1999/xlink" x="0px" y="0px"
	 viewBox="0 0 135 157.3" style="enable-background:new 0 0 135 157.3;" xml:space="preserve">
<style type="text/css">
	.st0{fill:#BFC933;}
</style>
<title>Asset 8</title>
<g id="Layer_2_1_">
	<g id="Icons_Set">
		<path class="st0" d="M100.6,28.3h-82c-12.5,0-18.7-15.2-9.9-24c2.6-2.6,6.2-4.1,9.9-4.1h85.9c1.1,0,2,0.9,2,2s-0.9,2-2,2H18.6
			c-5.5,0-10,4.5-10,10s4.5,10,10,10h82c1.1,0,2,0.9,2,2S101.7,28.3,100.6,28.3L100.6,28.3z"/>
		<path class="st0" d="M97.9,106.7c-4.7,0-8.5,3.8-8.5,8.5s3.8,8.5,8.5,8.5c4.7,0,8.5-3.8,8.5-8.5
			C106.4,110.5,102.6,106.7,97.9,106.7z"/>
		<path class="st0" d="M114.2,113.1c1.2-1.8,0.7-4.2-1.2-5.4c-0.2-0.1-0.5-0.3-0.7-0.4c-1.4-0.5-2.4-1.9-2.5-3.4
			c-0.1-2.2-2-3.8-4.1-3.7c-0.3,0-0.5,0.1-0.8,0.1c-1.5,0.4-3-0.1-4-1.3c-1.4-1.7-3.8-1.9-5.5-0.5c-0.2,0.2-0.4,0.3-0.5,0.5
			c-1,1.2-2.5,1.7-4,1.3c-2.1-0.6-4.2,0.6-4.8,2.7c-0.1,0.3-0.1,0.6-0.1,0.9c-0.1,1.5-1.1,2.9-2.5,3.4c-2,0.8-3,3-2.2,5
			c0.1,0.3,0.2,0.5,0.4,0.7c0.8,1.3,0.8,3,0,4.2c-1.2,1.8-0.7,4.2,1.1,5.4c0.2,0.1,0.5,0.3,0.7,0.4c1.4,0.6,2.4,1.9,2.5,3.4
			c0.1,2.1,1.9,3.8,4.1,3.7c0.3,0,0.6-0.1,0.8-0.1c1.5-0.4,3,0.1,4,1.3c1.4,1.7,3.8,1.9,5.5,0.5c0.2-0.2,0.4-0.3,0.5-0.5
			c1-1.2,2.5-1.7,4-1.3c2.1,0.6,4.2-0.7,4.8-2.7c0.1-0.3,0.1-0.6,0.1-0.8c0.1-1.5,1.1-2.9,2.5-3.4c2-0.8,3-3,2.2-5
			c-0.1-0.3-0.2-0.5-0.4-0.7C113.3,116,113.4,114.4,114.2,113.1z M97.9,127.5c-6.8,0-12.2-5.5-12.2-12.2c0-6.8,5.5-12.2,12.2-12.2
			c6.8,0,12.2,5.5,12.2,12.2c0,0,0,0,0,0C110.2,122,104.7,127.5,97.9,127.5z"/>
		<path class="st0" d="M104.2,133.7c0,0-0.1,0-0.1,0.1c-2.7,3.3-7.5,3.8-10.8,1.1c-0.4-0.3-0.8-0.7-1.1-1.1c0,0-0.1-0.1-0.1-0.1
			c-1.1,0.3-2.2,0.3-3.3,0.1v23.5l9.1-9.1l9.2,9.1h0.6v-23.5C106.4,134.1,105.3,134,104.2,133.7z"/>
		<path class="st0" d="M106.3,46.9h-68c-1.1,0-2-0.9-2-2s0.9-2,2-2h68c1.1,0,2,0.9,2,2S107.5,46.9,106.3,46.9z"/>
		<path class="st0" d="M90.6,59H49.8c-1.1,0-2-0.9-2-2s0.9-2,2-2h40.8c1.1,0,2,0.9,2,2S91.7,59,90.6,59z"/>
		<path class="st0" d="M41.4,59h-3c-1.1,0-2-0.9-2-2s0.9-2,2-2h3c1.1,0,2,0.9,2,2S42.5,59,41.4,59z"/>
		<path class="st0" d="M104.3,72.9h-3.7c-1.1,0-2-0.9-2-2s0.9-2,2-2h3.7c1.1,0,2,0.9,2,2S105.5,72.9,104.3,72.9z"/>
		<path class="st0" d="M91.8,72.9H38.3c-1.1,0-2-0.9-2-2s0.9-2,2-2h53.4c1.1,0,2,0.9,2,2S92.9,72.9,91.8,72.9z"/>
		<path class="st0" d="M105.5,86.7H38.3c-1.1,0-2-0.9-2-2s0.9-2,2-2h67.2c1.1,0,2,0.9,2,2S106.6,86.7,105.5,86.7z"/>
		<path class="st0" d="M66.6,101.1h-3c-1.1,0-2-0.9-2-2s0.9-2,2-2h3c1.1,0,2,0.9,2,2S67.7,101.1,66.6,101.1z M53.6,101.1h-3
			c-1.1,0-2-0.9-2-2s0.9-2,2-2h3c1.1,0,2,0.9,2,2S54.7,101.1,53.6,101.1z M40.6,101.1h-3c-1.1,0-2-0.9-2-2s0.9-2,2-2h3
			c1.1,0,2,0.9,2,2S41.7,101.1,40.6,101.1z"/>
		<path class="st0" d="M72.7,113.8h-35c-1.1,0-2-0.9-2-2s0.9-2,2-2h35c1.1,0,2,0.9,2,2S73.8,113.8,72.7,113.8z"/>
		<path class="st0" d="M123.1,145.2c-2.2,0-4.4-0.7-6.1-2.1c-1.1-0.9-2.4-1.4-3.8-1.4c-1.1,0-2-0.9-2-2s0.9-2,2-2
			c4.5,0,5.9,2.4,8,3.2c0-0.1,0-116.4,0-116.5c0-0.6,1-15.4-11.2-19.8C98.9,1.4,89.6,14,97.7,22c4.4,4.4,10.7,2.3,12.1-2.6
			c0.8-2.7-0.8-5.6-3.5-6.4c-1.1-0.3-1.6-1.4-1.3-2.5c0,0,0,0,0,0c1.2-4.2,11.1,1.8,8.7,10.1c-1.1,3.7-4.1,6.6-7.8,7.5
			c-10,2.5-18.8-9.4-13.7-19.4c3.6-6.9,11.5-10.2,18.9-8C125.7,6,125.1,23,125,24.5v118.6C125,144.3,124.1,145.2,123.1,145.2
			L123.1,145.2z"/>
		<path class="st0" d="M83.2,145.2c-2.2,0-4.4-0.7-6.2-2.2c-2.2-1.9-5.5-1.9-7.7,0c-4,2.8-8.1,2.9-12.3,0c-2.2-1.8-5.4-1.8-7.7,0
			c-4,2.8-8.1,2.9-12.3,0c-1.1-0.9-2.4-1.4-3.8-1.4c-4.1,0-4.3,3.5-10,3.5c-1.2,0.2-2.2-0.7-2.4-1.8c0-0.1,0-0.1,0-0.2v-116
			c0-1.1,0.9-2,2-2s2,0.9,2,2V141c0.8-0.3,1.6-0.7,2.2-1.2c4-2.8,8.1-2.9,12.3,0c1.1,0.9,2.4,1.4,3.8,1.4c4.1,0,4.3-3.5,10-3.5
			s6,3.5,10,3.5s4.3-3.5,10-3.5s6,3.5,10,3.5c1.1,0,2,0.9,2,2S84.3,145.2,83.2,145.2L83.2,145.2z"/>
		<path class="st0" d="M0,116.8V51.4c0-0.3,0-0.6,0.1-0.9c0-0.2,0.1-0.5,0.1-0.7v-0.2c0.1-0.4,0.3-0.8,0.5-1.2
			c0-0.1,0.1-0.2,0.1-0.3l3.1-5.6c0.8-1.5,2.7-2,4.2-1.2C8.6,41.7,9,42,9.2,42.5l3.7,5.4L13,48l0.1,0.1c0.6,1,0.9,2.1,0.9,3.3v65.4
			c0,1.1-0.9,2-2,2s-2-0.9-2-2V51.4c0-0.4-0.1-0.9-0.3-1.2l-2.9-4.3l-2.2,4c0,0.1-0.1,0.2-0.1,0.2c-0.1,0.2-0.2,0.4-0.2,0.6
			c0,0,0,0.1,0,0.1c0,0.1,0,0.2-0.1,0.2c0,0.1,0,0.2,0,0.3v65.4c0,1.1-0.9,2-2,2S0,117.8,0,116.8L0,116.8z"/>
		<path class="st0" d="M6.7,44.8c-1.1,0-2-0.9-2-2v-4.4c0-1.1,0.9-2,2-2s2,0.9,2,2v4.4C8.7,43.9,7.8,44.8,6.7,44.8L6.7,44.8z"/>
		<path class="st0" d="M11.4,118.8H2c-1.1,0-2-0.9-2-2s0.9-2,2-2h9.3c1.1,0,2,0.9,2,2S12.4,118.8,11.4,118.8L11.4,118.8z"/>
		<path class="st0" d="M7.1,142.1L7.1,142.1c-3.5,0-6.2-2.8-6.2-6.2v-13.3h12.5v13.3C13.3,139.3,10.5,142.1,7.1,142.1z"/>
	</g>
</g>
</svg>
