<?xml version="1.0" encoding="utf-8"?>
<!-- Generator: Adobe Illustrator 22.1.0, SVG Export Plug-In . SVG Version: 6.00 Build 0)  -->
<svg version="1.1" id="Layer_1" xmlns="http://www.w3.org/2000/svg" xmlns:xlink="http://www.w3.org/1999/xlink" x="0px" y="0px"
	 viewBox="0 0 136.8 155.5" style="enable-background:new 0 0 136.8 155.5;" xml:space="preserve">
<style type="text/css">
	.st0{fill:#BFC933;}
</style>
<title>Asset 1</title>
<g id="Layer_2_1_">
	<g id="Icons_Set">
		<path class="st0" d="M22.5,55.9V9.3c0-5.1,4.1-9.3,9.3-9.3h81.9c1.1,0,2,0.9,2,2c0.1,1-0.7,1.9-1.7,2.1c-2.6,0.4-4.5,2.6-4.5,5.2
			v18.9c0,1.1-0.9,2-2,2s-2-0.9-2-2c0-20.4-0.5-21.1,1.7-24.2H31.7c-2.9,0-5.3,2.4-5.3,5.3v46.6c0,1.1-0.9,2-2,2S22.5,57,22.5,55.9z
			"/>
		<path class="st0" d="M105.4,55.9V40.1c0-1.1,0.9-2,2-2s2,0.9,2,2v15.8c0,1.1-0.9,2-2,2S105.4,57,105.4,55.9z"/>
		<path class="st0" d="M105.4,17V9.3c-0.2-5.1,3.8-9.4,9-9.6s9.4,3.8,9.6,9c0,0.2,0,0.4,0,0.6v6.5c0,1.1-0.9,2-2,2h-12.7
			c-0.4,1-1.6,1.5-2.6,1.1C105.9,18.5,105.4,17.8,105.4,17z M109.4,13.7h10.5V9.3c0.1-2.9-2.1-5.4-5-5.5s-5.4,2.1-5.5,5
			c0,0.2,0,0.3,0,0.5V13.7z"/>
		<path class="st0" d="M102.9,124.8c5.8-4.7,8-9.2,10-13.1c1.6-3.3,3.2-6.4,6.4-8.7c0.9-0.6,2.2-0.4,2.8,0.5s0.4,2.2-0.5,2.8
			c-5.7,4.1-4.9,12.5-16.1,21.7c-0.9,0.7-2.1,0.6-2.9-0.3C101.9,126.8,102,125.6,102.9,124.8z"/>
		<path class="st0" d="M35.2,142.8c-3-3-3-7.9,0-10.9l5.7-5.7c3-3.1,7.9-3.2,10.9-0.2c3.1,3,3.2,7.9,0.2,10.9
			c-0.1,0.1-0.1,0.1-0.2,0.2l-5.7,5.7C43.1,145.8,38.2,145.8,35.2,142.8z M43.7,129.1l-5.7,5.7c-3.4,3.4,1.8,8.6,5.2,5.2l5.7-5.7
			c1.4-1.4,1.4-3.8,0-5.2C47.5,127.7,45.1,127.6,43.7,129.1L43.7,129.1z"/>
		<path class="st0" d="M27.2,134.7c-3-3-3-7.9,0-10.9l0.9-0.9c3-3.1,7.9-3.2,10.9-0.2c3.1,3,3.2,7.9,0.2,10.9
			c-0.1,0.1-0.1,0.1-0.2,0.2l-0.9,0.9l0,0C35.1,137.7,30.2,137.7,27.2,134.7z M36.7,133.3L36.7,133.3z M31,125.7l-0.9,0.9
			c-3.4,3.4,1.8,8.7,5.2,5.2l0.9-0.9c1.4-1.4,1.4-3.8,0-5.2C34.8,124.3,32.4,124.3,31,125.7z"/>
		<path class="st0" d="M57,142.3c3.3-3.4,5-5.7,8.9-5.7c4.3,0,7.7,3.5,7.7,7.8c0,2-0.8,4-2.2,5.4c-3,3.1-3.6,3.7-4.5,4.3
			C59.3,159.2,50.5,149.2,57,142.3z M63.3,141.8c-0.3,0.3-3.5,3.4-3.7,3.8c-2.3,3.7,1.6,7.3,5.1,5.1c0.4-0.2,3.5-3.4,3.8-3.7
			c1.4-1.4,1.4-3.8,0-5.2C67,140.3,64.7,140.3,63.3,141.8L63.3,141.8z"/>
		<path class="st0" d="M126.1,94.8c2.4-3.4-2.8-7-5.1-3.6S123.7,98.2,126.1,94.8z"/>
		<path class="st0" d="M122.2,106.9c-1.2-0.1,0.5,1.5-27.1-30.2c-0.7-0.8-0.7-2.1,0.1-2.8l25.2-23.6c0.8-0.8,2.1-0.7,2.9,0.1
			s0.7,2.1-0.1,2.9L99.4,75.5l23.1,26.5l2.8-2.5c0.8-0.7,2.1-0.7,2.8,0.2c0.7,0.9,0.7,2.1-0.2,2.8l0,0l-4.4,3.8
			C123.3,106.7,122.7,106.9,122.2,106.9z"/>
		<path class="st0" d="M25.7,126.3c-1.4-1.2-2.8-2.4-4.1-3.7c-4.4-4.4-6.8-9.3-8.8-13.4c-0.8-1.8-1.7-3.4-2.7-5.1L10,104l3.2-2.4
			c3,4.1,4.8,11.9,11.1,18.2c1.1,1.1,1.2,1.2,3.9,3.5c0.9,0.7,1,2,0.2,2.8C27.8,126.9,26.5,127,25.7,126.3L25.7,126.3z M10.1,104
			L10.1,104z"/>
		<path class="st0" d="M63.9,79.6c-4.4-3.1-10-3.9-15.2-2.3c-0.4,0.1-0.7,0.2-1.1,0.3c-3.9,1.1-10.2,2.6-14.2,1.3
			c-1.1-0.4-1.6-1.5-1.3-2.6c0.4-1.1,1.5-1.6,2.6-1.3c0.2,0,0.2,0,0.4,0.1c3.3,0.8,9.1-0.7,12.4-1.7c6.4-2,13.3-0.9,18.7,2.9
			c0.9,0.7,1.1,1.9,0.4,2.8S64.8,80.2,63.9,79.6L63.9,79.6L63.9,79.6z"/>
		<path class="st0" d="M83.2,140.3l-5.7-5.7c-0.8-0.8-0.8-2.1,0-2.9s2.1-0.8,2.9,0l5.6,5.7c1.5,1.4,3.8,1.4,5.2-0.1
			c0.7-0.7,1-1.6,1-2.5c0-2-0.2-1.8-11.6-13.1c-0.8-0.8-0.8-2.1,0-2.9s2.1-0.8,2.9,0c11.1,11.1,12.8,11.9,12.8,16
			c0,4.3-3.5,7.7-7.7,7.7C86.6,142.5,84.6,141.7,83.2,140.3L83.2,140.3z"/>
		<path class="st0" d="M93.9,135l-13.2-13.3c-0.8-0.8-0.8-2.1,0-2.9s2.1-0.8,2.9,0l13.2,13.3c1.5,1.4,3.7,1.4,5.2,0
			c1.4-1.4,1.4-3.8,0-5.2l0,0l-0.9-0.9c-0.8-0.8-0.8-2.1,0-2.9s2.1-0.8,2.9,0l0.9,0.9c2.9,3.1,2.7,8-0.4,10.9
			C101.5,137.8,96.9,137.8,93.9,135z"/>
		<path class="st0" d="M74.9,148.2l-6.3-6.3c-0.8-0.8-0.8-2.1,0-2.9c0.8-0.8,2.1-0.8,2.9,0l0,0l6.3,6.3c3.4,3.4,8.7-1.8,5.2-5.2
			l-10.6-10.6c-0.8-0.8-0.8-2.1,0-2.9s2.1-0.8,2.9,0l10.6,10.6c3,3.1,2.9,8-0.2,10.9C82.7,151,77.9,151,74.9,148.2z"/>
		<path class="st0" d="M5.9,94.9c-2.4-3.4,2.8-7,5.1-3.6S8.3,98.3,5.9,94.9z"/>
		<path class="st0" d="M8.4,106.5L4,102.6c-0.8-0.7-0.9-2-0.2-2.8s2-0.9,2.8-0.2l2.8,2.5l23.1-26.5L8,52.5c-0.8-0.8-0.9-2-0.1-2.9
			s2-0.9,2.9-0.1l26,24.4c0.8,0.7,0.9,2,0.1,2.8l-25.7,29.5C10.5,107.1,9.2,107.2,8.4,106.5L8.4,106.5z"/>
		<path class="st0" d="M101.1,126L70.6,95.6c-0.8-0.8-2-0.8-2.8-0.1c0,0,0,0-0.1,0.1c-2.8,2.7-10.4,9.9-10.4,9.9
			c-3.2,3.1-8.5,2.7-11.5-1.8c-2.1-2.9-1.8-6.9,0.8-9.4l16.5-15.8C68.8,73,77,71,84.5,73.4c6,1.8,10.5,2.4,12.9,1.6
			c1.1-0.4,2.2,0.2,2.6,1.3s-0.2,2.2-1.3,2.6c-3.2,1.1-8.4,0.6-15.3-1.5c-6.1-1.9-12.9-0.3-17.5,4.2L49.5,97.2
			c-1.2,1.2-1.3,3.2-0.1,4.4l0,0c3.3,3.4,4.8,1.2,7.2-1.1l8.4-7.9c2.4-2.3,6.2-2.2,8.6,0.1l30.4,30.5c0.8,0.8,0.8,2.1,0,2.9
			S101.9,126.8,101.1,126L101.1,126z"/>
		<path class="st0" d="M43.4,150.7c-3-3-3-7.9,0-10.9l7.2-7.2c3.1-2.9,8-2.7,10.9,0.4c2.8,3,2.8,7.6,0,10.5l-7.2,7.2
			C51.3,153.7,46.4,153.7,43.4,150.7L43.4,150.7z M53.4,135.4l-7.2,7.2c-3.5,3.4,1.8,8.6,5.2,5.2l7.2-7.2c1.4-1.4,1.4-3.8,0-5.2
			S54.9,134,53.4,135.4z"/>
		<path class="st0" d="M127,41.5L127,41.5c-54.8,0-51.8,0.4-52.8-0.6s-0.6-1.7-0.4-12.6c0-1.1,0.9-2,2-2c54.8,0,51.8-0.4,52.7,0.6
			s0.6,1.7,0.4,12.6C129,40.6,128.1,41.5,127,41.5z M77.7,37.5H125l0.1-7.2H77.8L77.7,37.5z"/>
		<path class="st0" d="M125.6,40.9c-1-1-0.6-1.8-0.4-12.6c0-1.1,0.9-2,2-2h2c4.2-0.1,7.6,3.3,7.7,7.5c0.1,4.2-3.3,7.6-7.5,7.7h-2.3
			C126.6,41.5,126,41.3,125.6,40.9z M129.1,30.3l-0.1,7.2c2,0,3.6-1.6,3.6-3.5C132.7,31.9,131.1,30.3,129.1,30.3z"/>
		<path class="st0" d="M74.9,41.3c-13.6-6.1-14.2-5.8-14.2-7.6s0.5-1.5,14.4-7.2c1-0.4,2.2,0.1,2.6,1.1c0.1,0.3,0.2,0.5,0.1,0.8
			c-0.2,11.9,0.2,12.1-1.1,12.8C76.2,41.5,75.5,41.6,74.9,41.3z M67.8,33.8l5.9,2.6l0.1-5.1L67.8,33.8z"/>
		<path class="st0" d="M59.4,31.8l4.9-0.1c2.6-0.1,2.8,3.9,0.1,4l-4.9,0.1C56.9,35.9,56.7,31.9,59.4,31.8z"/>
		<path class="st0" d="M81.7,61.8c-2.6,0-3.5-2.6-4.2-4.5c-0.1-0.3-0.3-0.8-0.4-1.2c-0.9,2-1.6,5.7-4.7,5.7s-3.8-3.6-4.7-5.6
			c-0.2,0.4-0.3,0.8-0.5,1.2c-0.7,1.9-1.6,4.5-4.2,4.5s-3.5-2.6-4.2-4.5c-0.2-0.7-0.5-1.3-0.8-1.9c-1.1-0.1-1.9-1.1-1.8-2.2
			s1.1-1.9,2.2-1.8c3,0,3.8,3.6,4.7,5.6c0.2-0.4,0.3-0.8,0.5-1.2c0.7-1.9,1.6-4.5,4.2-4.5s3.5,2.6,4.2,4.5c0.1,0.3,0.3,0.8,0.4,1.2
			c0.9-2,1.6-5.7,4.7-5.7c3.5,0,4,4.9,5,6.4c1.1,0.1,1.9,1.1,1.8,2.2S82.7,61.9,81.7,61.8L81.7,61.8z M58.4,55.5L58.4,55.5z"/>
		<path class="st0" d="M36.1,61.4C33.9,56,35.3,48.6,42.9,42c0.9-0.7,1.8-1.4,2.8-2c-0.5-1.9-1.4-4.8-3.3-5.5
			c-1-0.4-1.6-1.5-1.2-2.6c0.4-1,1.4-1.5,2.4-1.3c3.2,1,4.8,4.2,5.7,7.4l0.3-0.1c4.5-1.5,7.9,0.2,9.6,3.7C61.3,46,61,55,55.8,62
			c-0.7,0.9-2,1-2.8,0.3s-1-1.8-0.4-2.7c5-6.8,5.9-20.3-1.7-17.8L50.2,42c1.5,9.2-1,17.6-3.9,21.2c-1,1.4-2.5,2.3-4.2,2.5
			C39.4,66,37.2,63.9,36.1,61.4z M46.5,44.3c-2.7,2-4.9,4.6-6.3,7.7c-2.3,5.5,0.1,10,1.6,9.8s3-3.5,3.6-5.7
			C46.6,52.3,46.9,48.3,46.5,44.3z"/>
		<path class="st0" d="M58.7,18.5H38.5c-1.1,0-2-0.9-2-2s0.9-2,2-2h20.2c1.1,0,2,0.9,2,2S59.8,18.5,58.7,18.5z"/>
		<path class="st0" d="M75.7,18.5h-7.9c-1.1,0-2-0.9-2-2s0.9-2,2-2h7.9c1.1,0,2,0.9,2,2S76.8,18.5,75.7,18.5z"/>
	</g>
</g>
</svg>
