<svg xmlns="http://www.w3.org/2000/svg" viewBox="0 0 123.12 157.79"><defs><style>.cls-1{fill:#bfc933;}</style></defs><title>Asset 9</title><g id="Layer_2" data-name="Layer 2"><g id="Icons_Set" data-name="Icons Set"><path class="cls-1" d="M50,40H82a2,2,0,0,0,0-4H50a2,2,0,0,0,0,4Z"/><path class="cls-1" d="M50,50H68a2,2,0,0,0,0-4H50a2,2,0,0,0,0,4Z"/><path class="cls-1" d="M80,66H50a2,2,0,0,0,0,4H80A2,2,0,0,0,80,66Z"/><path class="cls-1" d="M50,80H62a2,2,0,0,0,0-4H50a2,2,0,0,0,0,4Z"/><path class="cls-1" d="M66,96H50a2,2,0,0,0,0,4H66a2,2,0,0,0,0-4Z"/><path class="cls-1" d="M62,106H50a2,2,0,0,0,0,4H62a2,2,0,0,0,0-4Z"/><path class="cls-1" d="M25,56H35c6.78,0,9-9,5-9a2,2,0,0,0-2,2,3,3,0,0,1-3,3H25a3,3,0,0,1-3-3c0-14.75-1.64-13,10.87-13a2,2,0,0,0,0-4H25a7,7,0,0,0-7,7V49A7,7,0,0,0,25,56Z"/><path class="cls-1" d="M123,135.86,120.49,128a2,2,0,0,0-1-1.16,2,2,0,0,0-1.53-.13l-1.29.42c.44-2.95,1.29-7.56,2.1-12,.71-3.89,1.38-7.57,1.78-10,1.16-7.35,1.75-11,.6-14.89,0,0-.2-.63-.45-1.29C118.07,82,105.9,69.25,100,63.35V19.68A7.69,7.69,0,0,0,92.32,12H73.19C70.87,7.47,66.44,8,64,8V5.33A5.33,5.33,0,0,0,58.67,0H43.33A5.33,5.33,0,0,0,38,5.33V8c-2.41,0-6.87-.53-9.19,4H7.68A7.69,7.69,0,0,0,0,19.68V128.32A7.69,7.69,0,0,0,7.68,136H84.07c.29.5.56,1,.8,1.41l-3.32,1.07a2,2,0,0,0-1.16,1c-.52,1-.58.12,4.85,16.93a2,2,0,1,0,3.81-1.23l-4.36-13.5,32.61-10.53,1.92,6a2,2,0,1,0,3.81-1.23ZM74,16H92.32A3.68,3.68,0,0,1,96,19.68V63.22c-.28.65-.18-1.82-.18,34.87l-.2-.09A9.31,9.31,0,0,1,92,95.12S92,95,92,95V22a2,2,0,0,0-2-2H74ZM42,5.33A1.34,1.34,0,0,1,43.33,4H58.67C60.35,4,60,5.87,60,8H42Zm-10,10A3.34,3.34,0,0,1,35.33,12H66.67A3.34,3.34,0,0,1,70,15.33V24H32ZM30,28H72a2,2,0,0,0,2-2V24H88V77.23a8.55,8.55,0,0,0-5.61-4.49C75.94,71.08,67.66,76.19,73.3,95c.56,2.13.47,21.82,1.21,25a18.86,18.86,0,0,0,2,4.07H12V24H28v2A2,2,0,0,0,30,28ZM7.68,132A3.68,3.68,0,0,1,4,128.32V19.68A3.68,3.68,0,0,1,7.68,16H28v4H10a2,2,0,0,0-2,2V126a2,2,0,0,0,2,2H79c1,1.57,1.63,2.5,2.59,4Zm107.17-17.62c-.94,5.15-1.91,10.46-2.3,13.36a1.86,1.86,0,0,0,0,.71l-23.85,7.71c-.51-1-1.13-2-1.85-3.21-1.73-2.78-5.1-8-5.17-8.09-.59-.92-3.06-4.8-3.32-5.85-.62-2.66-.47-22.52-1.26-25.17-3.21-10.67-1.38-14.66,0-16.09a4.45,4.45,0,0,1,4.27-1.13c3.53.91,4.28,4.82,5.09,11.17a36.85,36.85,0,0,0,1.83,8.8c.65,1.65,3.05,3.8,5.58,5A13.47,13.47,0,0,0,97.58,103a2,2,0,0,0,2.24-2V68.86c7.65,7.87,15.39,16.81,17.15,21.43.2.53.36,1,.36,1,.88,3,.35,6.36-.72,13.12C116.22,106.86,115.55,110.51,114.85,114.38Z"/><path class="cls-1" d="M88.91,148.18c1.84,3.24,6.75.45,4.91-2.79S87.07,144.93,88.91,148.18Z"/><path class="cls-1" d="M40.48,34.56,31.72,44.73l-4.42-4.2a2,2,0,0,0-2.75,2.9c6.42,6.1,6.25,6.19,7.31,6.19,1.26,0,.64.32,11.65-12.45a2,2,0,1,0-3-2.61Z"/><path class="cls-1" d="M25,86H35c6.78,0,9-9,5-9a2,2,0,0,0-2,2,3,3,0,0,1-3,3c-15.15,0-13,2-13-13a3,3,0,0,1,3-3h7.87a2,2,0,1,0,0-4H25a7,7,0,0,0-7,7V79A7,7,0,0,0,25,86Z"/><path class="cls-1" d="M40.48,64.56,31.72,74.73l-4.42-4.2a2,2,0,0,0-2.75,2.9c6.34,6,6.28,6.26,7.41,6.19s.53.33,11.55-12.45a2,2,0,1,0-3-2.61Z"/><path class="cls-1" d="M38,109a3,3,0,0,1-3,3H25a3,3,0,0,1-3-3V99a3,3,0,0,1,3-3h7.87a2,2,0,0,0,0-4H25a7,7,0,0,0-7,7v10a7,7,0,0,0,7,7H35a7,7,0,0,0,7-7A2,2,0,0,0,38,109Z"/><path class="cls-1" d="M40.48,94.56l-8.76,10.17-4.42-4.2a2,2,0,0,0-2.75,2.9c6.42,6.1,6.25,6.19,7.31,6.19,1.26,0,.64.32,11.65-12.45a2,2,0,1,0-3-2.61Z"/></g></g></svg>